inDegrees=yes
name=ik_lifting_orientations
DataType=double
version=3
OpenSimVersion=4.5-2024-01-10-34fd6af
endheader
time	pelvis_tilt	pelvis_list	pelvis_rotation	pelvis_tx	pelvis_ty	pelvis_tz	hip_flexion_r	hip_adduction_r	hip_rotation_r	knee_angle_r	knee_angle_r_beta	ankle_angle_r	subtalar_angle_r	mtp_angle_r	hip_flexion_l	hip_adduction_l	hip_rotation_l	knee_angle_l	knee_angle_l_beta	ankle_angle_l	subtalar_angle_l	mtp_angle_l	lumbar_extension	lumbar_bending	lumbar_rotation	arm_flex_r	arm_add_r	arm_rot_r	elbow_flex_r	pro_sup_r	wrist_flex_r	wrist_dev_r	arm_flex_l	arm_add_l	arm_rot_l	elbow_flex_l	pro_sup_l	wrist_flex_l	wrist_dev_l
1.33	-8.053977217656698	0.9979673714415033	-3.546635845504801	0	0.9399999999999999	0	44.99514771564271	-10.00000010184283	0	60.00165330459345	1.047226406805292	-4.999999852317744	0	0	44.99514771564271	-10.00000010184283	0	60.00165330459345	1.047226406805292	-4.999999852317744	0	0	-0.0006342392462864376	0.001349997726199869	0.0005881671379435659	7.862440665203976	-0.541840662446914	-1.089497218899058	0.4874692372787665	44.99999723399126	0	0	0	-14.76869698613005	0	75.01231690566345	44.99999723399126	0	0
1.34	-8.053608527275161	1.000029239473033	-3.546793122318532	0	0.9399999999999999	0	44.99541159121572	-10.00000008430826	0	60.00158772251605	1.047225262182111	-4.999999852080497	0	0	44.99541159121572	-10.00000008430826	0	60.00158772251605	1.047225262182111	-4.999999852080497	0	0	-0.002861542233817427	-0.002320100422727887	-0.000234732210148449	7.866075881862499	-0.5410668445409462	-1.088657555325059	0.4859249675739769	44.99999762559967	0	0	0	-14.77541651385776	0	75.01165667292248	44.99999762559967	0	0
1.35	-8.053870409325263	1.000587091884101	-3.547727207516379	0	0.9399999999999999	0	44.99561116022258	-10.00000007280546	0	60.00153739996291	1.047224383887871	-4.999999851932394	0	0	44.99561116022258	-10.00000007280546	0	60.00153739996291	1.047224383887871	-4.999999851932394	0	0	-0.001916743900530504	-0.0002305211463065413	-0.0009174431928263879	7.860001343408719	-0.5439699579952501	-1.086181608081644	0.4957422046601958	44.99999789233917	0	0	0	-14.78066862114071	0	75.01115733897242	44.99999789233917	0	0
1.36	-8.054750345641335	0.9976402536272868	-3.546530654921463	0	0.9399999999999999	0	44.9958204783636	-10.00000006161483	0	60.00148417924642	1.047223455011137	-4.999999851791639	0	0	44.9958204783636	-10.00000006161483	0	60.00148417924642	1.047223455011137	-4.999999851791639	0	0	0.0002389321063289665	0.001304930767189964	0.000596233683341943	7.862400284627791	-0.5417119352039078	-1.089573191832447	0.4878524667318798	44.99999815674155	0	0	0	-14.78628335706174	0	75.01063361199775	44.99999815674155	0	0
1.37	-8.053858603090831	0.9835278269954827	-3.554258433076582	0	0.9399999999999999	0	44.99602637489594	-10.00000005154829	0	60.00143132275759	1.047222532491376	-4.999999851668667	0	0	44.99602637489594	-10.00000005154829	0	60.00143132275759	1.047222532491376	-4.999999851668667	0	0	0.001907811283558532	0.002909762394657325	0.002721502513233742	7.858486813180638	-0.5240308216620621	-1.07727144836167	0.4856274846482124	44.9999984000459	0	0	0	-14.79192921559374	0	75.01011844599726	44.9999984000459	0	0
1.38	-8.072314919402872	0.998687662845069	-3.544518052220387	0	0.9399999999999999	0	44.99613595814102	-10.00000004629064	0	60.00140311418514	1.04722204015891	-4.999999851604637	0	0	44.99613595814102	-10.00000004629064	0	60.00140311418514	1.04722204015891	-4.999999851604637	0	0	0.002124657761655275	-0.001895966030103768	-0.001093725949695014	7.844032115321911	-0.5467185209047355	-1.092788938098441	0.5805764819799192	44.99999852757518	0	0	0	-14.79495330314371	0	75.00984426184965	44.99999852757518	0	0
1.39	-9.669245908848442	1.027993205790979	-3.475111923987694	0	0.9399999999999999	0	44.99613706913579	-10.00000004623363	0	60.00140282548099	1.047222035120072	-4.999999851603921	0	0	44.99613706913579	-10.00000004623363	0	60.00140282548099	1.047222035120072	-4.999999851603921	0	0	1.615854067706638	0.06393398387184648	-0.04830052400713442	7.858840687318014	-0.5326537713835073	-1.086503555488825	0.4839425528633207	44.99999852892932	0	0	0	-14.79498377164065	0	75.00984148207145	44.99999852892932	0	0
